P1
# CREATOR: GIMP PNM Filter Version 1.1
16 16
0000000000000000000000010000000000000001100000000000000101000000000010
0100100000000001010010000000000011010000000000000110000000000000011000
0000000000110100000000000101001000000000100100100000000000010100000000
0000011000000000000001000000000000000000000000