P1
# CREATOR: GIMP PNM Filter Version 1.1
12 12
0000010000000000011000000010010100000001010010000000110100000000011000
0000001101000000010100100000100101000000000110000000000100000000000000
0000