P1
# CREATOR: GIMP PNM Filter Version 1.1
7 9
000000000010000101100001101000011000011010010110000010000000000