P1
# CREATOR: GIMP PNM Filter Version 1.1
11 11
0000010000000000110000001001010000001010010000001101000000001100000000
110100000010100100001001010000000011000000000100000