P1
# CREATOR: GIMP PNM Filter Version 1.1
16 16
0000011111100000000011101111000000011110011110000011111010111100001101
1011011100001110101101110000111100101111000011111001111100001111100111
1100001111001011110000111010110111000011011011011100001111101011110000
0111100111100000001110111100000000011111100000