P1
# CREATOR: GIMP PNM Filter Version 1.1
7 9
001110001101101010011110010111100111100101101001101101100011100