P1
# CREATOR: GIMP PNM Filter Version 1.1
12 12
1111111111101111111111101101010101101101010101101100000001101100000001
1011000000011011000000011011110001111011111111111011111111111000000000
0000