P1
# CREATOR: GIMP PNM Filter Version 1.1
11 11
0000000000011111111111111111111111101010101111010101011110000000111100
000001111000000011111100011111111111111111111111111