P1
# CREATOR: GIMP PNM Filter Version 1.1
5 6
011101000111111110111101111111