P1
# CREATOR: GIMP PNM Filter Version 1.1
7 9
000000000111000100010100000111111111110111111011111101111111111