P1
# CREATOR: GIMP PNM Filter Version 1.1
11 11
0000010000000001110110000001001100110010010001100101000001001100000001
010000000001100000000001000000000111000000001110000