P1
# CREATOR: GIMP PNM Filter Version 1.1
12 12
0000010000000000111000000000010011000000010011000110010010000110010100
0000100110000000010100000000001100000000000100000000001110000000001110
0000