P1
# CREATOR: GIMP PNM Filter Version 1.1
7 9
000100000111001101000110101101010110011010000110000010000011100