P1
# CREATOR: GIMP PNM Filter Version 1.1
12 9
0000000000000011111111000100000000100001111110000010000001000000111100
00000100001000000001100000000001100000