P1
# CREATOR: GIMP PNM Filter Version 1.1
11 11
0000000000000000000000011111111001000000001000111111000010000001000001
111000000100001000000011000000000110000000000000000