P1
# CREATOR: GIMP PNM Filter Version 1.1
16 16
0000000000000000000111111111100000100000000001000100000000000010000011
1111110000000100000000100000100000000001000000011111100000000010000001
0000000000000000000000000011110000000000010000100000000000000000000000
0000011000000000000001100000000000000000000000