P1
# CREATOR: GIMP PNM Filter Version 1.1
12 9
0111111111101100000000111011111111011110000001110101111110100111000011
10001011110100000110011000000011110000