P1
# CREATOR: GIMP PNM Filter Version 1.1
16 16
0011111111111100011000000000011011011111111110111011111111111101111100
0000001111011011111111011001011111111110100111100000011110000101111110
1000000111111111100000001100001100000000101111010000000011111111000000
0000100100000000000010010000000000001111000000