P1
# CREATOR: GIMP PNM Filter Version 1.1
12 12
0000000000000111111111101000000000010011111111000100000000100001111110
0000100000010000001111000000010000100000000110000000000110000000000000
0000