P1
# CREATOR: GIMP PNM Filter Version 1.1
9 9
0001011000010011100110011110110011100110001100111001101111001100111001
00001101000